<mxfile host="Electron" modified="2024-04-08T00:18:29.750Z" agent="Mozilla/5.0 (Windows NT 10.0; Win64; x64) AppleWebKit/537.36 (KHTML, like Gecko) draw.io/24.1.0 Chrome/120.0.6099.109 Electron/28.1.0 Safari/537.36" etag="IDfsucTL28WLdqW29iNm" version="24.1.0" type="device">
  <diagram name="Page-1" id="vNhtieuHCgvpQEFALvFm">
    <mxGraphModel dx="1218" dy="1184" grid="1" gridSize="10" guides="1" tooltips="1" connect="1" arrows="1" fold="1" page="1" pageScale="1" pageWidth="850" pageHeight="1100" math="0" shadow="0">
      <root>
        <mxCell id="0" />
        <mxCell id="1" parent="0" />
        <mxCell id="8L5c4jKHqMhv6mvhz5o--1" value="" style="sketch=0;outlineConnect=0;fontColor=#232F3E;gradientColor=none;fillColor=#232F3D;strokeColor=none;dashed=0;verticalLabelPosition=bottom;verticalAlign=top;align=center;html=1;fontSize=12;fontStyle=0;aspect=fixed;pointerEvents=1;shape=mxgraph.aws4.client;" parent="1" vertex="1">
          <mxGeometry x="420" y="650" width="70" height="68.21" as="geometry" />
        </mxCell>
        <mxCell id="8L5c4jKHqMhv6mvhz5o--2" value="" style="sketch=0;outlineConnect=0;fontColor=#232F3E;gradientColor=none;fillColor=#232F3D;strokeColor=none;dashed=0;verticalLabelPosition=bottom;verticalAlign=top;align=center;html=1;fontSize=12;fontStyle=0;aspect=fixed;pointerEvents=1;shape=mxgraph.aws4.client;" parent="1" vertex="1">
          <mxGeometry x="405" y="540" width="100" height="97.44" as="geometry" />
        </mxCell>
        <mxCell id="8L5c4jKHqMhv6mvhz5o--3" value="" style="sketch=0;outlineConnect=0;fontColor=#232F3E;gradientColor=none;fillColor=#232F3D;strokeColor=none;dashed=0;verticalLabelPosition=bottom;verticalAlign=top;align=center;html=1;fontSize=12;fontStyle=0;aspect=fixed;pointerEvents=1;shape=mxgraph.aws4.client;" parent="1" vertex="1">
          <mxGeometry x="390" y="400" width="130" height="126.67" as="geometry" />
        </mxCell>
        <mxCell id="8L5c4jKHqMhv6mvhz5o--4" value="Vertical Scaling" style="text;html=1;align=center;verticalAlign=middle;resizable=0;points=[];autosize=1;strokeColor=none;fillColor=none;fontSize=20;fontStyle=1" parent="1" vertex="1">
          <mxGeometry x="375" y="350" width="160" height="40" as="geometry" />
        </mxCell>
        <mxCell id="8L5c4jKHqMhv6mvhz5o--6" value="" style="endArrow=classic;html=1;rounded=0;" parent="1" edge="1">
          <mxGeometry width="50" height="50" relative="1" as="geometry">
            <mxPoint x="560" y="730" as="sourcePoint" />
            <mxPoint x="560" y="360" as="targetPoint" />
          </mxGeometry>
        </mxCell>
        <mxCell id="8L5c4jKHqMhv6mvhz5o--7" value="&lt;span style=&quot;font-size: 13px; background-color: rgb(251, 251, 251);&quot;&gt;&amp;nbsp;Increase size of instance (RAM, CPU etc.)&amp;nbsp;&lt;/span&gt;" style="edgeLabel;html=1;align=center;verticalAlign=middle;resizable=0;points=[];horizontal=0;fontStyle=1;fontSize=13;" parent="8L5c4jKHqMhv6mvhz5o--6" vertex="1" connectable="0">
          <mxGeometry x="0.0855" y="-2" relative="1" as="geometry">
            <mxPoint x="-2" y="21" as="offset" />
          </mxGeometry>
        </mxCell>
      </root>
    </mxGraphModel>
  </diagram>
</mxfile>
